<svg id="Layer_1" enable-background="new 0 0 512.001 512.001" height="512" viewBox="0 0 512.001 512.001" width="512" xmlns="http://www.w3.org/2000/svg"><g><g><path d="m488.94 366.886h-38.24l-.687 2.929 13.75 26.833 3.596 1.451h21.582c8.62 0 15.607-6.987 15.607-15.607-.001-8.619-6.988-15.606-15.608-15.606z" fill="#dbedff"/><path d="m171.56 366.886-2.298 3.762 12.5 27.452h6.457 153.861l4.266-1.868 14.416-27.334-2.023-2.012z" fill="#dbedff"/><g><path d="m488.94 380.611h-33.396l8.218 16.037 3.596 1.451h21.582c8.62 0 15.607-6.987 15.607-15.607 0-3.24-.988-6.25-2.679-8.744-2.806 4.142-7.549 6.863-12.928 6.863z" fill="#b5dcff"/></g><g><path d="m173.799 380.611 7.963 17.489h6.457 153.861l4.266-1.868 8.239-15.621z" fill="#b5dcff"/></g><path d="m99.039 36.438h-8.019l-3.966 2.752v24l3.966 3.248h8.02c6.277 0 11.384 5.106 11.384 11.384v271.396l3.589 1.513h23.417l2.994-1.585v-271.324c-.001-22.82-18.565-41.384-41.385-41.384z" fill="#dbedff"/><path d="m125.579 75.64c0-14.539-11.786-26.325-26.325-26.325h-12.2v13.875l3.966 3.248h8.02c6.277 0 11.384 5.106 11.384 11.384v271.396l3.589 1.513h11.567v-275.091z" fill="#b5dcff"/><path d="m307.21 224.136h-46.271l-1.51 2.762h-32.667l-2.323-2.762h-46.271c-4.307 0-7.799 3.492-7.799 7.799v127.151c0 4.307 3.492 7.799 7.799 7.799h129.042c4.307 0 7.799-3.492 7.799-7.799v-127.15c.001-4.308-3.491-7.8-7.799-7.8z" fill="#6ed6a2"/><g><path d="m199.119 359.087v-127.151c0-4.307 3.492-7.799 7.799-7.799h-28.75c-4.307 0-7.799 3.492-7.799 7.799v127.151c0 4.307 3.492 7.799 7.799 7.799h28.75c-4.307 0-7.799-3.492-7.799-7.799z" fill="#00c479"/></g><path d="m451.851 149.886h-46.271l-5.776 3.803h-27.5l-3.224-3.803h-46.271c-4.307 0-7.799 3.492-7.799 7.799v92.901c0 4.308 3.492 7.799 7.799 7.799h129.042c4.308 0 7.799-3.492 7.799-7.799v-92.901c0-4.306-3.492-7.799-7.799-7.799z" fill="#00d2fc"/><g><path d="m343.76 250.587v-92.901c0-4.307 3.492-7.799 7.799-7.799h-28.75c-4.307 0-7.799 3.492-7.799 7.799v92.901c0 4.308 3.492 7.799 7.799 7.799h28.75c-4.308 0-7.799-3.491-7.799-7.799z" fill="#00c2fb"/></g><path d="m224.439 224.136v51.452c0 2.65 2.148 4.798 4.798 4.798h26.904c2.65 0 4.798-2.148 4.798-4.798v-51.452z" fill="#f27182"/><path d="m451.851 258.386h-46.271l-4.651 3.012h-28.25l-3.599-3.012h-46.271c-4.307 0-7.799 3.492-7.799 7.799v92.901c0 4.308 3.492 7.799 7.799 7.799h35.93l2.023 2.012h86.333l3.604-2.012h1.151c4.307 0 7.799-3.492 7.799-7.799v-92.901c.001-4.307-3.491-7.799-7.798-7.799z" fill="#ffc365"/><g><path d="m343.759 359.087v-92.901c0-4.307 3.492-7.799 7.799-7.799h-28.75c-4.307 0-7.799 3.492-7.799 7.799v92.901c0 4.308 3.492 7.799 7.799 7.799h28.75c-4.307 0-7.799-3.492-7.799-7.799z" fill="#ffa90f"/></g><g fill="#f27182"><path d="m369.08 258.386v51.452c0 2.65 2.148 4.798 4.798 4.798h26.904c2.65 0 4.798-2.148 4.798-4.798v-51.452z"/><path d="m369.08 258.386v51.452c0 2.65 2.148 4.798 4.798 4.798h26.904c2.65 0 4.798-2.148 4.798-4.798v-51.452z"/><path d="m369.08 149.887v51.452c0 2.65 2.148 4.798 4.798 4.798h26.904c2.65 0 4.798-2.148 4.798-4.798v-51.452z"/></g><path d="m244.439 275.588v-51.452h-20v51.452c0 2.65 2.148 4.798 4.798 4.798h20c-2.65 0-4.798-2.148-4.798-4.798z" fill="#ed5469"/><path d="m389.08 309.838v-51.452h-20v51.452c0 2.65 2.148 4.798 4.798 4.798h20c-2.65 0-4.798-2.148-4.798-4.798z" fill="#ed5469"/><path d="m389.08 201.338v-51.452h-20v51.452c0 2.65 2.148 4.798 4.798 4.798h20c-2.65.001-4.798-2.148-4.798-4.798z" fill="#ed5469"/><path d="m91.02 36.438h-68.475c-8.284 0-15 6.716-15 15s6.716 15 15 15h68.475z" fill="#f27182"/><path d="m91.02 49.315h-67.966c-8.532 0-10.261-5.854-10.579-8.971-3.021 2.744-4.93 6.691-4.93 11.094 0 8.284 6.716 15 15 15h68.475z" fill="#ed5469"/><circle cx="125.579" cy="411.438" fill="#8479c2" r="64.04"/><path d="m94.289 411.438c0-29.707 20.231-54.682 47.665-61.919-5.228-1.379-10.714-2.121-16.375-2.121-35.368 0-64.04 28.672-64.04 64.04s28.672 64.04 64.04 64.04c5.661 0 11.147-.742 16.375-2.121-27.433-7.237-47.665-32.212-47.665-61.919z" fill="#6e60b8"/><circle cx="125.579" cy="411.438" fill="#dbedff" r="34.56"/><path d="m123.77 411.438c0-13.161 7.359-24.602 18.185-30.438-4.874-2.628-10.45-4.121-16.375-4.121-19.087 0-34.56 15.473-34.56 34.56s15.473 34.56 34.56 34.56c5.925 0 11.501-1.493 16.375-4.121-10.827-5.838-18.185-17.279-18.185-30.44z" fill="#b5dcff"/><circle cx="404.719" cy="411.438" fill="#8479c2" r="64.04"/><path d="m373.429 411.438c0-29.707 20.231-54.682 47.665-61.919-5.228-1.379-10.714-2.121-16.375-2.121-35.368 0-64.04 28.672-64.04 64.04s28.672 64.04 64.04 64.04c5.661 0 11.147-.742 16.375-2.121-27.433-7.237-47.665-32.212-47.665-61.919z" fill="#6e60b8"/><circle cx="404.719" cy="411.438" fill="#dbedff" r="34.56"/><path d="m402.91 411.438c0-13.161 7.359-24.602 18.185-30.438-4.874-2.628-10.45-4.121-16.375-4.121-19.087 0-34.56 15.473-34.56 34.56s15.473 34.56 34.56 34.56c5.925 0 11.501-1.493 16.375-4.121-10.827-5.838-18.185-17.279-18.185-30.44z" fill="#b5dcff"/></g><g><path d="m83.475 411.48c0 23.192 18.868 42.06 42.06 42.06s42.059-18.868 42.059-42.06-18.867-42.06-42.059-42.06-42.06 18.869-42.06 42.06zm69.118 0c0 14.921-12.139 27.06-27.059 27.06-14.921 0-27.06-12.139-27.06-27.06s12.139-27.06 27.06-27.06c14.92.001 27.059 12.14 27.059 27.06z"/><path d="m404.674 369.421c-23.191 0-42.06 18.868-42.06 42.06s18.868 42.06 42.06 42.06 42.06-18.868 42.06-42.06-18.869-42.06-42.06-42.06zm0 69.119c-14.921 0-27.06-12.139-27.06-27.06s12.139-27.06 27.06-27.06 27.06 12.139 27.06 27.06-12.139 27.06-27.06 27.06z"/><path d="m22.5 73.98h68.475 8.02c2.142 0 3.884 1.742 3.884 3.884v265.775c-28.373 9.501-48.884 36.312-48.884 67.842 0 39.447 32.093 71.54 71.54 71.54s71.539-32.093 71.539-71.54c0-1.968-.102-3.911-.258-5.838h59.186c4.143 0 7.5-3.358 7.5-7.5s-3.357-7.5-7.5-7.5h-62.021c-1.635-5.41-4.149-11.105-7.25-16.213h156.749c-3.145 5.18-5.554 10.685-7.25 16.213h-45.228c-4.143 0-7.5 3.358-7.5 7.5s3.357 7.5 7.5 7.5h42.391c-.157 1.928-.258 3.871-.258 5.838 0 39.447 32.093 71.54 71.54 71.54s71.54-32.093 71.54-71.54c0-1.968-.102-3.911-.258-5.838h12.939c12.741-.001 23.106-10.367 23.106-23.107 0-12.741-10.365-23.106-23.106-23.106h-21.805c.002-.101.015-.198.015-.299v-92.901c0-2.851-.798-5.512-2.161-7.799 1.363-2.287 2.161-4.948 2.161-7.799v-26.951c0-4.142-3.357-7.5-7.5-7.5s-7.5 3.358-7.5 7.5v26.951c0 .165-.134.299-.299.299-17.335 0-111.623 0-129.043 0-.165 0-.299-.134-.299-.299 0-9.225 0-83.233 0-92.901 0-.166.134-.3.299-.3h38.771v43.952c0 6.781 5.517 12.298 12.298 12.298h26.904c6.781 0 12.298-5.517 12.298-12.298v-43.952h38.771c.165 0 .299.134.299.3v30.951c0 4.142 3.357 7.5 7.5 7.5s7.5-3.358 7.5-7.5v-30.951c0-8.437-6.863-15.3-15.299-15.3h-129.043c-8.436 0-15.299 6.863-15.299 15.3v58.965c-1.255-.024 11.371-.015-129.342-.015-8.436 0-15.299 6.863-15.299 15.299v118.476c-4.657-2.856-9.668-5.182-14.945-6.921v-265.671c0-26.955-21.929-48.884-48.884-48.884-15.576 0-60.967 0-76.494 0-12.406 0-22.5 10.094-22.5 22.5s10.094 22.5 22.5 22.5zm466.395 300.449c4.47 0 8.106 3.637 8.106 8.106s-3.637 8.106-8.106 8.107h-15.775c-1.783-5.81-4.251-11.273-7.25-16.213zm-112.361-217h21.5v41.25h-21.5zm84.68 254.051c0 31.176-25.363 56.54-56.54 56.54s-56.54-25.364-56.54-56.54c0-31.042 25.236-56.54 56.54-56.54 31.23 0 56.54 25.446 56.54 56.54zm-84.68-145.551h21.5v41.25h-21.5zm-53.771 0h38.771v43.952c0 6.781 5.517 12.298 12.298 12.298h26.904c6.781 0 12.298-5.517 12.298-12.298v-43.952h38.771c.165 0 .299.134.299.299v91.709c-13.705-12.19-30.756-17.997-47.431-17.997-17.73 0-35.291 6.479-49.057 19.488h-32.854c-.165 0-.299-.134-.299-.299.001-.463-.164-93.2.3-93.2zm-90.869-34.25h21.5v41.25h-21.5zm-54.071.299c0-.165.134-.299.299-.299h38.771v43.952c0 6.781 5.517 12.298 12.298 12.298h26.904c6.781 0 12.298-5.517 12.298-12.298v-43.952h38.771c.165 0 .299.134.299.299v127.151c0 .165-.134.299-.299.299h-129.042c-.165 0-.299-.134-.299-.299zm4.25 179.502c0 31.176-25.363 56.54-56.539 56.54-31.177 0-56.54-25.364-56.54-56.54 0-26.677 18.578-49.083 43.471-54.999 35.792-8.47 69.608 18.871 69.608 54.999zm-83.598-367.5h.52c18.684 0 33.884 15.2 33.884 33.884v262.451c-5.251-.538-10.609-.45-15 .038v-262.489c0-10.413-8.472-18.884-18.884-18.884h-.52zm-75.975 0h60.975v15c-65.798 0-61.412.067-62.484-.153-3.415-.7-5.991-3.728-5.991-7.347 0-4.135 3.364-7.5 7.5-7.5z"/></g></g></svg>